<?xml version="1.0" encoding="UTF-8"?>
<svg xmlns="http://www.w3.org/2000/svg" xmlns:xlink="http://www.w3.org/1999/xlink" width="39px" height="48px" viewBox="0 0 40 48" version="1.1">
<g id="surface1">
<path style=" stroke:none;fill-rule:nonzero;fill:rgb(100%,12.941176%,8.627451%);fill-opacity:1;" d="M 5.050781 0 C 2.269531 0 0 2.214844 0 4.941406 L 0 42.875 C 0 45.597656 2.269531 47.816406 5.050781 47.816406 L 34.722656 47.816406 C 37.503906 47.816406 39.773438 45.597656 39.773438 42.875 L 39.773438 11.683594 C 39.773438 11.683594 39.851562 10.769531 39.445312 9.878906 C 39.066406 9.046875 38.445312 8.464844 38.445312 8.464844 C 38.445312 8.464844 38.445312 8.460938 38.441406 8.460938 L 31.078125 1.402344 C 31.074219 1.398438 31.070312 1.394531 31.066406 1.390625 C 31.066406 1.390625 30.441406 0.800781 29.507812 0.414062 C 28.410156 -0.046875 27.28125 0 27.28125 0 L 27.296875 0 Z M 5.050781 0 "/>
<path style=" stroke:none;fill-rule:nonzero;fill:rgb(96.078431%,96.078431%,96.078431%);fill-opacity:1;" d="M 5.050781 1.625 L 27.296875 1.625 C 27.304688 1.625 27.308594 1.625 27.316406 1.625 C 27.316406 1.625 28.203125 1.632812 28.855469 1.902344 C 29.480469 2.164062 29.921875 2.566406 29.925781 2.566406 C 29.925781 2.566406 29.929688 2.570312 29.929688 2.570312 L 37.273438 9.613281 C 37.273438 9.613281 37.714844 10.070312 37.929688 10.539062 C 38.101562 10.921875 38.113281 11.613281 38.113281 11.613281 C 38.113281 11.625 38.113281 11.636719 38.113281 11.648438 L 38.113281 42.875 C 38.113281 44.726562 36.613281 46.191406 34.722656 46.191406 L 5.050781 46.191406 C 3.15625 46.191406 1.65625 44.726562 1.65625 42.875 L 1.65625 4.941406 C 1.65625 3.085938 3.15625 1.625 5.050781 1.625 Z M 5.050781 1.625 "/>
<path style=" stroke:none;fill-rule:nonzero;fill:rgb(100%,12.941176%,8.627451%);fill-opacity:1;" d="M 9.929688 28.46875 C 8.789062 27.351562 10.023438 25.816406 13.375 24.1875 L 15.484375 23.164062 L 16.3125 21.40625 C 16.761719 20.4375 17.433594 18.859375 17.808594 17.898438 L 18.488281 16.152344 L 18.015625 14.855469 C 17.445312 13.269531 17.238281 10.875 17.605469 10.019531 C 18.097656 8.855469 19.714844 8.972656 20.351562 10.222656 C 20.851562 11.195312 20.804688 12.960938 20.207031 15.1875 L 19.722656 17.011719 L 20.152344 17.722656 C 20.386719 18.109375 21.074219 19.039062 21.679688 19.78125 L 22.816406 21.160156 L 24.226562 20.984375 C 28.71875 20.410156 30.257812 21.382812 30.257812 22.777344 C 30.257812 24.542969 26.730469 24.6875 23.769531 22.65625 C 23.101562 22.195312 22.644531 21.742188 22.644531 21.742188 C 22.644531 21.742188 20.789062 22.109375 19.878906 22.351562 C 18.933594 22.597656 18.464844 22.753906 17.082031 23.210938 C 17.082031 23.210938 16.597656 23.898438 16.28125 24.398438 C 15.105469 26.261719 13.734375 27.804688 12.753906 28.363281 C 11.660156 28.992188 10.511719 29.035156 9.929688 28.46875 Z M 11.722656 27.84375 C 12.363281 27.453125 13.664062 25.953125 14.566406 24.558594 L 14.925781 23.992188 L 13.269531 24.808594 C 10.710938 26.066406 9.539062 27.253906 10.148438 27.96875 C 10.488281 28.375 10.898438 28.339844 11.722656 27.84375 Z M 28.355469 23.277344 C 28.980469 22.847656 28.894531 21.984375 28.179688 21.632812 C 27.628906 21.359375 27.183594 21.304688 25.75 21.324219 C 24.867188 21.382812 23.449219 21.558594 23.210938 21.609375 C 23.210938 21.609375 23.988281 22.136719 24.335938 22.328125 C 24.796875 22.585938 25.914062 23.0625 26.730469 23.308594 C 27.535156 23.546875 28 23.523438 28.355469 23.277344 Z M 21.667969 20.5625 C 21.289062 20.167969 20.644531 19.355469 20.234375 18.75 C 19.695312 18.0625 19.425781 17.578125 19.425781 17.578125 C 19.425781 17.578125 19.035156 18.808594 18.714844 19.546875 L 17.714844 21.972656 L 17.421875 22.523438 C 17.421875 22.523438 18.964844 22.027344 19.753906 21.824219 C 20.582031 21.613281 22.273438 21.289062 22.273438 21.289062 Z M 19.511719 12.113281 C 19.609375 11.3125 19.652344 10.523438 19.386719 10.121094 C 18.667969 9.347656 17.789062 9.992188 17.9375 11.832031 C 17.988281 12.453125 18.144531 13.515625 18.355469 14.164062 L 18.738281 15.355469 L 19.007812 14.460938 C 19.15625 13.96875 19.382812 12.910156 19.511719 12.113281 Z M 19.511719 12.113281 "/>
<path style=" stroke:none;fill-rule:nonzero;fill:rgb(17.254902%,17.254902%,17.254902%);fill-opacity:1;" d="M 11.875 33.640625 L 13.726562 33.640625 C 14.316406 33.640625 14.800781 33.695312 15.171875 33.804688 C 15.539062 33.914062 15.847656 34.15625 16.101562 34.527344 C 16.355469 34.902344 16.480469 35.351562 16.480469 35.875 C 16.480469 36.355469 16.378906 36.773438 16.171875 37.117188 C 15.96875 37.464844 15.691406 37.714844 15.347656 37.871094 C 15 38.023438 14.46875 38.101562 13.753906 38.101562 L 13.113281 38.101562 L 13.113281 40.960938 L 11.875 40.960938 Z M 13.113281 34.578125 L 13.113281 37.128906 L 13.726562 37.128906 C 14.273438 37.128906 14.652344 37.03125 14.863281 36.828125 C 15.074219 36.628906 15.179688 36.304688 15.179688 35.851562 C 15.179688 35.519531 15.109375 35.242188 14.972656 35.035156 C 14.832031 34.828125 14.679688 34.699219 14.511719 34.652344 C 14.34375 34.601562 14.085938 34.578125 13.726562 34.578125 Z M 13.113281 34.578125 "/>
<path style=" stroke:none;fill-rule:nonzero;fill:rgb(17.254902%,17.254902%,17.254902%);fill-opacity:1;" d="M 17.429688 33.640625 L 19.113281 33.640625 C 19.929688 33.640625 20.578125 33.777344 21.066406 34.0625 C 21.554688 34.347656 21.921875 34.761719 22.175781 35.324219 C 22.425781 35.878906 22.550781 36.5 22.550781 37.179688 C 22.550781 37.894531 22.4375 38.53125 22.214844 39.09375 C 21.992188 39.648438 21.644531 40.101562 21.179688 40.445312 C 20.71875 40.785156 20.0625 40.960938 19.203125 40.960938 L 17.429688 40.960938 Z M 18.671875 34.609375 L 18.671875 39.988281 L 19.183594 39.988281 C 19.90625 39.988281 20.429688 39.746094 20.75 39.261719 C 21.078125 38.765625 21.242188 38.117188 21.242188 37.300781 C 21.242188 35.503906 20.554688 34.609375 19.183594 34.609375 Z M 18.671875 34.609375 "/>
<path style=" stroke:none;fill-rule:nonzero;fill:rgb(17.254902%,17.254902%,17.254902%);fill-opacity:1;" d="M 23.742188 33.640625 L 27.898438 33.640625 L 27.898438 34.609375 L 24.980469 34.609375 L 24.980469 36.796875 L 27.320312 36.796875 L 27.320312 37.765625 L 24.980469 37.765625 L 24.980469 40.960938 L 23.742188 40.960938 Z M 23.742188 33.640625 "/>
</g>
</svg>
